<?xml version="1.0" encoding="UTF-8"?>
<svg id="Layer_1" xmlns="http://www.w3.org/2000/svg" version="1.1" viewBox="0 0 200 40.61">
  <!-- Generator: Adobe Illustrator 29.1.0, SVG Export Plug-In . SVG Version: 2.1.0 Build 142)  -->
  <defs>
    <style>
      .st0 {
        fill: #4d4d4d;
      }

      .st1 {
        fill: #666;
      }

      .st2 {
        fill: #ff5b00;
      }
    </style>
  </defs>
  <g>
    <path class="st0" d="M56.01,8.06c0,.78.23,1.45.69,1.99.46.55,1.03,1.05,1.72,1.52.69.47,1.44.93,2.23,1.39.8.46,1.54.98,2.23,1.55.69.58,1.27,1.25,1.72,2.02.46.77.69,1.7.69,2.8,0,.98-.25,1.79-.74,2.45-.5.65-1.13,1.18-1.89,1.57-.77.39-1.6.66-2.51.82-.91.16-1.77.23-2.59.23-1.6,0-2.93-.2-3.97-.59-1.05-.39-1.84-.87-2.39-1.45-.55-.58-.85-1.19-.89-1.85-.05-.65.11-1.23.48-1.71.37-.49.95-.85,1.73-1.08.78-.23,1.74-.22,2.87.03-.41,1.13-.64,2.14-.67,3.02-.02.37,0,.74.07,1.1.07.36.21.68.41.95.2.27.49.5.86.67.37.18.84.26,1.41.26.41,0,.77-.07,1.08-.22.31-.15.57-.34.78-.57.2-.23.36-.49.47-.78.11-.28.16-.56.16-.84,0-.59-.14-1.11-.41-1.57-.27-.46-.63-.88-1.07-1.26-.44-.38-.94-.75-1.49-1.1-.56-.35-1.13-.7-1.71-1.04-.59-.34-1.16-.7-1.73-1.09-.57-.38-1.06-.81-1.49-1.28-.43-.47-.78-.99-1.04-1.56-.26-.57-.4-1.21-.4-1.94.02-1,.26-1.82.73-2.47.47-.65,1.05-1.15,1.74-1.51.69-.36,1.44-.61,2.24-.75.8-.14,1.55-.21,2.25-.21.82,0,1.59.13,2.31.38.72.25,1.38.46,1.99.63.6.17,1.15.2,1.62.12.48-.09.89-.46,1.24-1.13.06,1.05,0,1.98-.2,2.78-.08.35-.19.69-.34,1.01-.15.32-.33.62-.55.88-.22.26-.5.47-.83.63-.33.16-.72.23-1.17.23-.58,0-1.02-.12-1.31-.35-.29-.23-.51-.53-.66-.89-.15-.36-.25-.76-.32-1.19-.07-.43-.16-.83-.28-1.19-.12-.36-.29-.66-.53-.91-.23-.24-.59-.37-1.08-.37-.45,0-.8.17-1.07.5-.26.33-.39.77-.39,1.32Z"/>
    <path class="st0" d="M70.1,24.38c-.41,0-.84-.08-1.27-.23-.44-.16-.85-.38-1.22-.67-.37-.29-.67-.65-.91-1.08-.23-.43-.35-.92-.35-1.47,0-.8.19-1.43.57-1.88.38-.45.86-.81,1.44-1.07.58-.26,1.21-.49,1.9-.67.69-.19,1.36-.41,2.01-.69.64-.27,1.22-.63,1.71-1.08.5-.45.84-1.08,1.01-1.9.1-.51,0-.96-.29-1.36-.29-.4-.64-.6-1.05-.6-.31,0-.56.1-.73.29-.18.19-.32.44-.44.73-.12.29-.23.61-.34.95-.11.34-.24.65-.4.95-.16.29-.37.53-.63.73-.26.19-.61.29-1.04.29-.35,0-.66-.07-.92-.2-.26-.14-.49-.31-.69-.52-.2-.21-.35-.46-.47-.74-.12-.28-.22-.57-.29-.86-.18-.68-.24-1.47-.21-2.36.18.53.45.83.84.91.38.08.84.05,1.36-.09.53-.14,1.12-.3,1.77-.5.65-.2,1.34-.29,2.07-.29.84,0,1.67.13,2.48.4.81.26,1.54.64,2.18,1.13.64.49,1.16,1.09,1.55,1.82.39.72.59,1.53.59,2.43v5.48c0,.49.12.92.37,1.3.24.38.5.61.78.69v.21l-4.81.03c-.45,0-.79-.1-1.01-.31-.22-.21-.39-.43-.48-.66-.12-.27-.18-.6-.18-.97-.08.08-.19.22-.32.42-.14.21-.38.42-.72.64-.34.22-.82.42-1.44.59-.62.17-1.42.25-2.42.25ZM75,15.32c-.16.63-.41,1.2-.75,1.72-.34.52-.69,1.02-1.04,1.51-.35.49-.65.98-.91,1.47-.25.49-.38,1.01-.38,1.56,0,.27.04.49.12.66.08.17.18.29.29.38s.23.14.35.16c.12.02.21.03.29.03.21,0,.43-.08.66-.25.22-.17.43-.36.63-.57.2-.22.36-.44.48-.68.13-.24.21-.42.25-.56v-5.44Z"/>
    <path class="st0" d="M90.09,24.41l-7.62-.03v-.21c.27-.08.53-.31.78-.69.24-.38.37-.82.37-1.3v-7.85c0-.55-.12-1-.37-1.35-.24-.35-.5-.57-.78-.64v-.23c.74,0,1.49-.04,2.26-.12.64-.08,1.35-.2,2.11-.35.76-.16,1.47-.4,2.11-.73v1.32c.14-.27.33-.5.57-.67.24-.18.5-.31.76-.4.26-.09.52-.15.78-.18.25-.03.46-.04.62-.04,1,0,1.84.16,2.53.47.69.31,1.25.76,1.67,1.33.42.58.72,1.28.91,2.11.19.83.28,1.76.28,2.8v4.54c0,.49.12.92.37,1.3.24.38.5.61.78.69v.21h-4.72c-.45,0-.79-.05-1.03-.15-.23-.1-.41-.24-.51-.43-.11-.19-.17-.41-.19-.69-.02-.27-.03-.59-.03-.94v-4.54c0-.78-.04-1.5-.13-2.17-.09-.66-.2-1.24-.35-1.73-.15-.49-.32-.86-.51-1.13-.2-.26-.41-.4-.64-.4s-.42.19-.57.57-.26.81-.34,1.29c-.08.48-.13.95-.16,1.41-.03.46-.05.76-.07.89v5.8c0,.51.12.95.37,1.32.24.37.5.6.78.67v.23Z"/>
    <path class="st0" d="M106.94,21.77c-.2.45-.48.85-.85,1.2-.33.31-.77.59-1.3.83-.54.24-1.23.37-2.09.37s-1.54-.17-2.05-.51c-.52-.34-.91-.76-1.18-1.26s-.45-1.03-.52-1.58c-.08-.56-.12-1.04-.12-1.45v-7.74h-1.17v-.73c.78-.18,1.56-.44,2.34-.79.66-.29,1.35-.7,2.07-1.22.72-.52,1.36-1.2,1.92-2.04h.17v4.04h2.11v.73h-2.11v7.88c0,.74.09,1.31.28,1.71.19.4.41.67.69.81.27.14.58.16.91.07.33-.09.63-.27.91-.54v.21Z"/>
    <path class="st0" d="M114.85,24.41l-7.62-.03v-.21c.27-.08.53-.31.78-.69.24-.38.37-.82.37-1.3v-13.19c0-.53-.12-.97-.37-1.33-.24-.36-.5-.57-.78-.63v-.23c.74-.02,1.49-.07,2.26-.15.64-.08,1.35-.2,2.11-.35.76-.16,1.47-.39,2.11-.7v6.62c.14-.27.33-.5.57-.67.24-.18.5-.31.76-.4.26-.09.52-.15.78-.18.25-.03.46-.04.62-.04,1,0,1.84.16,2.53.47.69.31,1.25.76,1.67,1.33.42.58.72,1.28.91,2.11.19.83.28,1.76.28,2.8v4.54c0,.49.12.92.37,1.3.24.38.5.61.78.69v.21h-4.72c-.45,0-.79-.05-1.03-.15-.23-.1-.41-.24-.51-.43-.11-.19-.17-.41-.19-.69-.02-.27-.03-.59-.03-.94v-4.54c0-.78-.04-1.5-.13-2.17-.09-.66-.2-1.24-.35-1.73-.15-.49-.32-.86-.51-1.13-.2-.26-.41-.4-.64-.4s-.42.19-.57.57-.26.81-.34,1.29c-.08.48-.13.95-.16,1.41-.03.46-.05.76-.07.89v5.8c0,.51.12.95.37,1.32.24.37.5.6.78.67v.23Z"/>
    <path class="st0" d="M149.23,23.48c-.25-.38-.37-.82-.37-1.3v-11.28c-.64.33-1.35.58-2.11.73-.76.16-1.47.28-2.11.35-.76.08-1.51.13-2.26.15v.2c.27.08.53.29.78.65.24.35.37.8.37,1.35v4.6c-.02.16-.04.46-.07.92-.03.46-.08.94-.16,1.45-.08.51-.19.96-.34,1.35-.15.39-.34.59-.57.59s-.45-.14-.66-.42c-.2-.28-.38-.67-.53-1.17-.15-.5-.26-1.08-.34-1.76-.08-.67-.12-1.41-.12-2.21h-.03v-5.67c-.1.32-.26.61-.47.88-.35.46-.95.69-1.81.69-.5,0-.94-.06-1.31-.18-.38-.12-.73-.23-1.05-.34-.32-.11-.61-.19-.87-.25-.13-.03-.26-.04-.38-.02.06.07.12.15.18.24.24.35.37.79.37,1.32l.03,3.34c0,1.04.09,1.97.28,2.8.18.83.49,1.53.91,2.11.42.58.98,1.02,1.67,1.33.69.31,1.54.47,2.54.47.16,0,.36-.01.62-.04.25-.03.51-.09.78-.18.26-.09.51-.22.75-.4.23-.18.43-.4.59-.67v-.91c0,.35,0,.66.03.94.02.28.08.51.19.7.11.2.28.34.51.44.23.1.57.15,1,.15l4.75-.03v-.2c-.27-.08-.53-.31-.78-.69Z"/>
    <path class="st0" d="M158.83,29.71h-7.62v-.23c.27-.06.53-.28.78-.66.24-.38.37-.82.37-1.3v-13.19c0-.55-.12-1-.37-1.35-.24-.35-.5-.57-.78-.64v-.23c.74,0,1.49-.04,2.26-.12.64-.08,1.35-.2,2.11-.35.76-.16,1.47-.4,2.11-.73v.7c.14-.21.39-.38.75-.5.36-.12.71-.18,1.04-.18.88,0,1.7.16,2.48.47.77.31,1.44.76,2.01,1.33.57.58,1.02,1.28,1.35,2.11.33.83.5,1.76.5,2.8s-.17,1.97-.5,2.8c-.33.83-.78,1.54-1.35,2.12-.57.59-1.24,1.04-2.01,1.35-.77.31-1.6.47-2.48.47-.47,0-.85-.07-1.13-.21-.28-.14-.5-.29-.66-.47v3.81c0,.51.12.95.37,1.32.24.37.5.59.78.64v.23ZM157.69,22.03c.04.29.15.61.34.94.19.33.41.5.69.5.23,0,.44-.16.63-.47.19-.31.35-.73.48-1.26.14-.53.24-1.14.32-1.85.08-.7.12-1.46.12-2.26s-.04-1.53-.12-2.24c-.08-.71-.19-1.33-.32-1.86-.14-.53-.3-.95-.48-1.26-.19-.31-.4-.47-.63-.47-.27,0-.5.17-.69.51-.19.34-.3.66-.34.95v8.76Z"/>
    <path class="st0" d="M175.24,21.77c-.2.45-.48.85-.85,1.2-.33.31-.77.59-1.3.83-.54.24-1.23.37-2.09.37s-1.54-.17-2.05-.51c-.52-.34-.91-.76-1.18-1.26s-.45-1.03-.52-1.58c-.08-.56-.12-1.04-.12-1.45v-7.74h-1.17v-.73c.78-.18,1.56-.44,2.34-.79.66-.29,1.35-.7,2.07-1.22.72-.52,1.36-1.2,1.92-2.04h.17v4.04h2.11v.73h-2.11v7.88c0,.74.09,1.31.28,1.71.19.4.41.67.69.81.27.14.58.16.91.07.33-.09.63-.27.91-.54v.21Z"/>
    <path class="st0" d="M183.15,24.41l-7.62-.03v-.21c.27-.08.53-.31.78-.69.24-.38.37-.82.37-1.3v-13.19c0-.53-.12-.97-.37-1.33-.24-.36-.5-.57-.78-.63v-.23c.74-.02,1.49-.07,2.26-.15.64-.08,1.35-.2,2.11-.35.76-.16,1.47-.39,2.11-.7v6.62c.14-.27.33-.5.57-.67.24-.18.5-.31.76-.4.26-.09.52-.15.78-.18.25-.03.46-.04.62-.04,1,0,1.84.16,2.53.47.69.31,1.25.76,1.67,1.33.42.58.72,1.28.91,2.11.19.83.28,1.76.28,2.8v4.54c0,.49.12.92.37,1.3.24.38.5.61.78.69v.21h-4.72c-.45,0-.79-.05-1.03-.15-.23-.1-.41-.24-.51-.43-.11-.19-.17-.41-.19-.69-.02-.27-.03-.59-.03-.94v-4.54c0-.78-.04-1.5-.13-2.17-.09-.66-.2-1.24-.35-1.73-.15-.49-.32-.86-.51-1.13-.2-.26-.41-.4-.64-.4s-.42.19-.57.57-.26.81-.34,1.29c-.08.48-.13.95-.16,1.41-.03.46-.05.76-.07.89v5.8c0,.51.12.95.37,1.32.24.37.5.6.78.67v.23Z"/>
    <path class="st0" d="M200,24.41l-7.62-.03v-.21c.27-.08.53-.31.78-.69.24-.38.37-.82.37-1.3v-7.85c0-.55-.12-1-.37-1.35-.24-.35-.5-.57-.78-.64v-.23c.74,0,1.49-.04,2.26-.12.64-.08,1.35-.2,2.11-.35.76-.16,1.47-.4,2.11-.73v11.28c0,.51.12.95.37,1.32.24.37.5.6.78.67v.23Z"/>
    <path class="st0" d="M195.78,10.9c-.74,0-1.37-.25-1.89-.76-.52-.51-.78-1.13-.78-1.88,0-.37.07-.72.21-1.04.14-.32.33-.61.57-.85.24-.24.53-.43.85-.57.32-.14.67-.2,1.04-.2s.72.07,1.04.2c.32.14.61.33.85.57.24.24.43.53.57.85.14.32.21.67.21,1.04,0,.74-.26,1.37-.78,1.88-.52.51-1.15.76-1.89.76Z"/>
    <path class="st0" d="M140.46,9.34c-.03-.18-.07-.36-.11-.55-.25.33-.51.51-.76.53-.25.02-.52-.02-.79-.13-.27-.11-.57-.23-.89-.37-.32-.14-.68-.2-1.07-.2-.63,0-1.17.14-1.63.42-.46.28-.85.63-1.16,1.04-.31.41-1.17,1.71-1.41,2.01,0,0,0,0,0,0-.02.02-.04.04-.06.07-.03.03-.06.07-.09.11-.03.04-.07.08-.11.13-.05.07-.11.14-.18.21-.03.03-.05.06-.08.1-.08.09-.16.19-.24.28,0,0,0,0,0,0-.5.6-1.1,1.33-1.36,1.72-.07.1-.11.18-.13.23v-4.04c-.64.33-1.35.58-2.11.73-.76.16-1.46.28-2.11.35-.76.08-1.51.12-2.26.12v.23c.09.03.18.07.27.13.17.11.34.28.5.52.24.35.37.8.37,1.35v7.85c0,.49-.12.92-.37,1.3-.24.38-.5.61-.78.69v.2h.56s6.67.03,6.67.03h.4s0-.23,0-.23c-.27-.08-.53-.3-.78-.67-.09-.14-.16-.29-.22-.44-.1-.26-.14-.56-.14-.88v-5.19c.12-.33.67-1.01,1.23-1.67.45-.53.92-1.05,1.17-1.35.08-.1.14-.17.17-.21.13-.2,1.04-1.14,1.28-1.26.06-.03.12-.05.17-.07.18-.06.37-.06.56-.02.25.06.54.14.85.25.31.11.66.22,1.03.34.37.12.8.18,1.29.18.84,0,1.43-.23,1.77-.67.33-.44.53-.93.59-1.48,0-.01,0-.03,0-.04.06-.5.04-1.05-.06-1.65Z"/>
  </g>
  <g>
    <path class="st2" d="M8.16,16.94c-.34-.83-.51-1.7-.51-2.58,0-1.74.66-3.47,1.98-4.79,1.99-1.99,4.92-2.48,7.37-1.47l2.29-2.29c-3.23-1.83-7.27-1.7-10.37.4.08-.33.12-.68.12-1.04,0-2.49-2.03-4.52-4.52-4.52S0,2.67,0,5.16s2.03,4.52,4.52,4.52c.48,0,.94-.07,1.37-.21h0c-.87,1.51-1.3,3.2-1.3,4.9s.44,3.4,1.31,4.91c.23-.28.48-.55.73-.81l1.52-1.52ZM3.06,5.16c0-.8.65-1.45,1.46-1.45s1.45.65,1.45,1.45-.65,1.45-1.45,1.45-1.46-.65-1.46-1.45Z"/>
    <path class="st2" d="M20.3,34.15l2.2-2.2,10.63-10.63c.32-.32.62-.66.88-1.01-.27-.35-.56-.69-.88-1.01l-12.83-12.83h0s-12.83,12.83-12.83,12.83c-.32.32-.62.66-.88,1.01.27.35.56.69.88,1.01l12.83,12.83h0ZM11.6,20.3l8.7-8.82,8.7,8.82-8.7,8.82-8.7-8.82Z"/>
    <path class="st2" d="M31.56,5.16c0,.36.04.71.12,1.04-3.11-2.1-7.15-2.23-10.37-.4l2.02,2.02.26.26c2.45-1.01,5.38-.51,7.37,1.47,1.32,1.32,1.98,3.06,1.98,4.79,0,.88-.17,1.75-.51,2.58l1.52,1.52c.26.26.5.53.73.81,1.74-3.02,1.74-6.78,0-9.8h0s0,0,0,0c0,0,0,0,0,0h0c.43.14.89.21,1.37.21,2.49,0,4.52-2.02,4.52-4.52s-2.03-4.52-4.52-4.52c-2.49,0-4.52,2.03-4.52,4.52ZM37.53,5.16c0,.8-.65,1.45-1.46,1.45s-1.45-.65-1.45-1.45.65-1.45,1.45-1.45,1.46.65,1.46,1.45Z"/>
    <path class="st2" d="M40.6,35.45c0-2.49-2.03-4.52-4.52-4.52-.48,0-.94.07-1.37.21,0,0,0,0,0,0,0,0,0,0,0,0,1.73-3.03,1.73-6.79,0-9.81-.23.28-.48.55-.73.81l-1.52,1.52c1.01,2.45.51,5.38-1.47,7.37-1.99,1.99-4.92,2.48-7.37,1.48l-2.29,2.29c3.23,1.83,7.27,1.7,10.37-.4-.08.33-.12.68-.12,1.04,0,2.49,2.03,4.52,4.52,4.52,2.49,0,4.52-2.03,4.52-4.52ZM34.62,35.45c0-.8.65-1.45,1.45-1.45s1.46.65,1.46,1.45-.65,1.46-1.46,1.46-1.45-.65-1.45-1.46Z"/>
    <path class="st2" d="M9.04,35.45c0-.36-.04-.71-.12-1.04,3.11,2.1,7.15,2.23,10.37.4l-2.29-2.29c-2.45,1-5.38.51-7.37-1.48-1.99-1.99-2.48-4.92-1.47-7.37l-1.52-1.52c-.26-.26-.5-.53-.73-.81-.87,1.51-1.31,3.21-1.31,4.91,0,1.26.24,2.52.72,3.7.17.41.36.8.58,1.19-.43-.14-.89-.21-1.37-.21-2.49,0-4.52,2.03-4.52,4.52s2.03,4.52,4.52,4.52,4.52-2.03,4.52-4.52ZM3.06,35.45c0-.8.65-1.45,1.46-1.45s1.45.65,1.45,1.45-.65,1.46-1.45,1.46-1.46-.65-1.46-1.46Z"/>
  </g>
  <g>
    <path class="st1" d="M50.96,33.19h3.55v.85h-2.6v1.5h2.25v.8h-2.25v2.03h-.95v-5.18Z"/>
    <path class="st1" d="M54.67,36.41c0-1.14.86-2.08,2.06-2.08s2.07.93,2.07,2.08-.86,2.08-2.07,2.08-2.06-.93-2.06-2.08ZM57.88,36.41c0-.7-.49-1.22-1.15-1.22s-1.15.52-1.15,1.22.49,1.22,1.15,1.22,1.15-.51,1.15-1.22Z"/>
    <path class="st1" d="M59.32,36.41c0-1.14.86-2.08,2.06-2.08s2.07.93,2.07,2.08-.86,2.08-2.07,2.08-2.06-.93-2.06-2.08ZM62.53,36.41c0-.7-.49-1.22-1.15-1.22s-1.15.52-1.15,1.22.49,1.22,1.15,1.22,1.15-.51,1.15-1.22Z"/>
    <path class="st1" d="M63.97,36.41c0-1.14.76-2.08,1.9-2.08.64,0,1.12.39,1.32.76l-.02-.41v-1.68h.92v5.36h-.88v-.66c-.23.41-.7.78-1.36.78-1.11,0-1.89-.93-1.89-2.08ZM67.19,36.41c0-.69-.51-1.22-1.15-1.22s-1.15.51-1.15,1.22.48,1.23,1.15,1.23,1.15-.53,1.15-1.23Z"/>
    <path class="st1" d="M71.15,33.19h2.24c1.05,0,1.8.68,1.8,1.69,0,.73-.42,1.29-1.05,1.51l1.17,1.98h-1.09l-1.02-1.84c-.07,0-.13,0-.2,0h-.89v1.84h-.95v-5.18ZM73.35,35.73c.5,0,.88-.35.88-.86,0-.47-.38-.84-.89-.84h-1.25v1.7h1.25Z"/>
    <path class="st1" d="M79.71,36.66h-3.06c.1.64.54,1.01,1.09,1.01.46,0,.75-.19.88-.53h1.01c-.2.7-.89,1.35-1.87,1.35-1.18,0-2.03-.93-2.03-2.08s.85-2.08,2.03-2.08,1.97.93,1.97,2.01c0,.1,0,.17-.02.31ZM78.79,35.94c-.04-.44-.5-.8-1.04-.8-.46,0-.91.25-1.06.8h2.1Z"/>
    <path class="st1" d="M80.21,37.12h.88c.02.36.28.63.81.63.48,0,.7-.2.7-.5,0-.33-.29-.43-.83-.51-.75-.1-1.4-.4-1.4-1.21,0-.72.52-1.21,1.47-1.21s1.58.51,1.58,1.26h-.9c-.02-.3-.25-.5-.67-.5-.4,0-.57.2-.57.43,0,.29.14.39.82.5.81.12,1.44.36,1.44,1.19s-.7,1.28-1.65,1.28c-1.15,0-1.68-.67-1.68-1.36Z"/>
    <path class="st1" d="M84.02,36.41c0-1.14.85-2.08,2.02-2.08,1.01,0,1.73.64,1.95,1.5h-.94c-.18-.43-.56-.64-1.01-.64-.57,0-1.11.45-1.11,1.22s.55,1.22,1.11,1.22c.45,0,.83-.21,1.01-.7h.94c-.2.91-.94,1.55-1.95,1.55-1.17,0-2.02-.93-2.02-2.08Z"/>
    <path class="st1" d="M88.65,36.55v-2.09h.91v2.06c0,.72.31,1.11.93,1.11s.92-.4.92-1.11v-2.06h.92v2.09c0,1.39-.8,1.94-1.84,1.94s-1.84-.55-1.84-1.94Z"/>
    <path class="st1" d="M97.03,36.66h-3.06c.1.64.54,1.01,1.09,1.01.46,0,.75-.19.88-.53h1.01c-.2.7-.89,1.35-1.87,1.35-1.18,0-2.03-.93-2.03-2.08s.85-2.08,2.03-2.08,1.97.93,1.97,2.01c0,.1,0,.17-.02.31ZM96.11,35.94c-.04-.44-.5-.8-1.04-.8-.46,0-.91.25-1.06.8h2.1Z"/>
    <path class="st1" d="M97.74,34.84c0-.27.21-.51.54-.51s.54.23.54.51-.22.51-.54.51-.54-.23-.54-.51ZM97.74,37.99c0-.27.21-.51.54-.51s.54.23.54.51-.22.51-.54.51-.54-.23-.54-.51Z"/>
    <path class="st1" d="M101.83,33.19h3.55v.85h-2.6v1.5h2.25v.8h-2.25v2.03h-.95v-5.18Z"/>
    <path class="st1" d="M105.94,34.45h.88v.71c.18-.43.54-.71,1.05-.71h.42v.79h-.37c-.63,0-1.06.47-1.06,1.3v1.82h-.92v-3.91Z"/>
    <path class="st1" d="M108.52,36.41c0-1.14.86-2.08,2.06-2.08s2.07.93,2.07,2.08-.86,2.08-2.07,2.08-2.06-.93-2.06-2.08ZM111.73,36.41c0-.7-.49-1.22-1.15-1.22s-1.15.52-1.15,1.22.49,1.22,1.15,1.22,1.15-.51,1.15-1.22Z"/>
    <path class="st1" d="M119.72,36.26v2.11h-.91v-2.09c0-.77-.32-1.09-.83-1.09s-.94.48-.94,1.18v2h-.91v-2.09c0-.77-.32-1.09-.82-1.09s-.94.48-.94,1.18v2h-.91v-3.91h.86v.61c.21-.42.68-.73,1.26-.73.65,0,1.09.31,1.31.88.34-.6.81-.88,1.37-.88.98,0,1.47.69,1.47,1.92Z"/>
    <path class="st1" d="M122.75,33.19h2.18c1.05,0,1.8.73,1.8,1.74,0,1.07-.74,1.78-1.78,1.78h-1.25v1.65h-.95v-5.18ZM124.9,35.87c.5,0,.88-.4.88-.94,0-.47-.38-.9-.89-.9h-1.2v1.84h1.2Z"/>
    <path class="st1" d="M127.39,33h.92v5.37h-.92v-5.37Z"/>
    <path class="st1" d="M129.11,36.41c0-1.14.79-2.08,1.84-2.08.64,0,1.16.29,1.41.78v-.66h.88v3.91h-.88v-.66c-.26.49-.77.78-1.41.78-1.06,0-1.84-.93-1.84-2.08ZM132.32,36.41c0-.68-.51-1.22-1.15-1.22s-1.15.49-1.15,1.22.53,1.22,1.15,1.22,1.15-.53,1.15-1.22Z"/>
    <path class="st1" d="M134.63,36.88v-1.63h-.81v-.79h.81v-1.15h.92s0,1.15,0,1.15h1.17v.79h-1.17v1.68c0,.55.27.68.57.68h.61v.77h-.8c-.59,0-1.3-.2-1.3-1.49Z"/>
    <path class="st1" d="M141.07,36.66h-3.06c.1.64.54,1.01,1.09,1.01.46,0,.75-.19.88-.53h1.01c-.2.7-.89,1.35-1.87,1.35-1.18,0-2.03-.93-2.03-2.08s.85-2.08,2.03-2.08,1.97.93,1.97,2.01c0,.1,0,.17-.02.31ZM140.15,35.94c-.04-.44-.5-.8-1.04-.8-.46,0-.91.25-1.06.8h2.1Z"/>
    <path class="st1" d="M144.9,34.04h-1.54v-.85h4.03v.85h-1.54v4.33h-.94v-4.33Z"/>
    <path class="st1" d="M147.13,36.41c0-1.14.86-2.08,2.06-2.08s2.07.93,2.07,2.08-.86,2.08-2.07,2.08-2.06-.93-2.06-2.08ZM150.34,36.41c0-.7-.49-1.22-1.15-1.22s-1.15.52-1.15,1.22.49,1.22,1.15,1.22,1.15-.51,1.15-1.22Z"/>
    <path class="st1" d="M154.03,33.19h2.18c1.05,0,1.8.73,1.8,1.74,0,1.07-.74,1.78-1.78,1.78h-1.25v1.65h-.95v-5.18ZM156.18,35.87c.5,0,.88-.4.88-.94,0-.47-.38-.9-.89-.9h-1.2v1.84h1.2Z"/>
    <path class="st1" d="M158.59,36.55v-2.09h.91v2.06c0,.72.31,1.11.93,1.11s.92-.4.92-1.11v-2.06h.92v2.09c0,1.39-.8,1.94-1.84,1.94s-1.84-.55-1.84-1.94Z"/>
    <path class="st1" d="M163.26,34.45h.88v.71c.18-.43.54-.71,1.05-.71h.42v.79h-.37c-.63,0-1.06.47-1.06,1.3v1.82h-.92v-3.91Z"/>
    <path class="st1" d="M166.28,34.45h.88v.66c.28-.47.78-.77,1.34-.77,1.11,0,1.91.93,1.91,2.07s-.8,2.08-1.9,2.08c-.57,0-1.07-.3-1.33-.75l.02.45v1.52h-.92v-5.25ZM169.49,36.41c0-.73-.52-1.22-1.15-1.22s-1.15.54-1.15,1.22.53,1.23,1.15,1.23,1.15-.47,1.15-1.23Z"/>
    <path class="st1" d="M170.93,36.41c0-1.14.86-2.08,2.06-2.08s2.07.93,2.07,2.08-.86,2.08-2.07,2.08-2.06-.93-2.06-2.08ZM174.14,36.41c0-.7-.49-1.22-1.15-1.22s-1.15.52-1.15,1.22.49,1.22,1.15,1.22,1.15-.51,1.15-1.22Z"/>
    <path class="st1" d="M175.59,37.12h.88c.02.36.28.63.81.63.48,0,.7-.2.7-.5,0-.33-.29-.43-.83-.51-.75-.1-1.4-.4-1.4-1.21,0-.72.52-1.21,1.47-1.21s1.58.51,1.58,1.26h-.9c-.02-.3-.25-.5-.67-.5-.4,0-.57.2-.57.43,0,.29.14.39.82.5.81.12,1.44.36,1.44,1.19s-.7,1.28-1.65,1.28c-1.15,0-1.68-.67-1.68-1.36Z"/>
    <path class="st1" d="M183.38,36.66h-3.06c.1.64.54,1.01,1.09,1.01.46,0,.75-.19.88-.53h1.01c-.2.7-.89,1.35-1.87,1.35-1.18,0-2.03-.93-2.03-2.08s.85-2.08,2.03-2.08,1.97.93,1.97,2.01c0,.1,0,.17-.02.31ZM182.46,35.94c-.04-.44-.5-.8-1.04-.8-.46,0-.91.25-1.06.8h2.1Z"/>
  </g>
</svg>